<svg width="180" height="110" xmlns="http://www.w3.org/2000/svg">
 <!-- Created with Method Draw - http://github.com/duopixel/Method-Draw/ -->

 <g>
  <title>background</title>
  <rect fill="#fff" id="canvas_background" height="112" width="182" y="-1" x="-1"/>
  <g display="none" overflow="visible" y="0" x="0" height="100%" width="100%" id="canvasGrid">
   <rect fill="url(#gridpattern)" stroke-width="0" y="0" x="0" height="100%" width="100%"/>
  </g>
 </g>
 <g>
  <title>Layer 1</title>
  <g stroke="null" id="svg_9">
   <rect stroke="#D9D9D9" transform="matrix(1.2692187520976517,0,0,1.11381180725747,-3.064651200273829,-6.667158877866314) " id="svg_4" stroke-width="1.5" fill="white" rx="15.25" height="112.5" width="164.5" y="-0.88413" x="-4.19832"/>
   <path stroke="null" id="svg_5" fill="#28356A" d="m80.92917,88.34942l1.3818,-7.73398l-3.07824,-0.06326l-14.69933,0l10.21556,-57.07194c0.03173,-0.17286 0.13466,-0.33325 0.28494,-0.44742c0.15091,-0.11417 0.34345,-0.17676 0.54475,-0.17676l24.7853,0c8.22898,0 13.90734,1.50844 16.87172,4.48621c1.38941,1.39694 2.27533,2.85704 2.70432,4.46338c0.4493,1.68575 0.45565,3.69964 0.01777,6.15626l-0.03173,0.17877l0,1.57426l1.38979,0.6939c1.17022,0.5471 2.10056,1.17318 2.81386,1.88992c1.18926,1.19479 1.9584,2.71302 2.28332,4.51227c0.33634,1.85082 0.22465,4.05383 -0.32492,6.54765c-0.63461,2.86818 -1.66014,5.36657 -3.04486,7.41041c-1.27303,1.88346 -2.89509,3.44602 -4.82176,4.6564c-1.83922,1.15034 -4.02418,2.02357 -6.49472,2.58248c-2.39438,0.54911 -5.12409,0.82634 -8.11792,0.82634l-1.92883,0c-1.37901,0 -2.71867,0.43762 -3.77034,1.22207c-1.05472,0.80083 -1.7519,1.89515 -1.96589,3.09194l-0.14583,0.69647l-2.44172,13.63194l-0.1103,0.50021c-0.02957,0.1585 -0.07996,0.23746 -0.15396,0.29093c-0.06587,0.0489 -0.16056,0.08153 -0.25308,0.08153l-11.90971,0z" clip-rule="evenodd" fill-rule="evenodd"/>
   <path stroke="null" id="svg_6" fill="#298FC2" d="m122.63329,38.32324c-0.07361,0.41679 -0.15865,0.8426 -0.25257,1.28022c-3.26951,14.78697 -14.45183,19.89524 -28.73372,19.89524l-7.27199,0c-1.74683,0 -3.21899,1.11715 -3.49061,2.63539l-4.77759,26.70241c-0.17693,0.9972 0.69502,1.89515 1.83631,1.89515l12.8978,0c1.52687,0 2.82439,-0.97748 3.06491,-2.3047l0.12667,-0.57707l2.4284,-13.57859l0.15611,-0.74469c0.2376,-1.33167 1.53804,-2.30993 3.06504,-2.30993l1.92883,0c12.49584,0 22.27796,-4.46984 25.13751,-17.40598c1.19433,-5.40377 0.57623,-9.91604 -2.58413,-13.0894c-0.95699,-0.95676 -2.14371,-1.75102 -3.53097,-2.39804z" clip-rule="evenodd" fill-rule="evenodd"/>
   <path stroke="null" id="svg_7" fill="#22284F" d="m119.21274,37.12065c-0.50007,-0.12853 -1.01538,-0.24459 -1.54337,-0.34963c-0.53142,-0.10236 -1.07541,-0.19302 -1.63564,-0.27255c-1.96069,-0.27912 -4.10935,-0.41155 -6.41044,-0.41155l-19.42679,0c-0.47888,0 -0.93326,0.09523 -1.33966,0.26743c-0.89632,0.37959 -1.56165,1.12695 -1.72309,2.04184l-4.13296,23.06415l-0.11842,0.6723c0.27161,-1.51813 1.74378,-2.63528 3.49048,-2.63528l7.27199,0c14.28201,0 25.4651,-5.11095 28.73334,-19.89524c0.09773,-0.43762 0.18023,-0.86354 0.25257,-1.28022c-0.82626,-0.38672 -1.72233,-0.71741 -2.68567,-0.99909c-0.23861,-0.06984 -0.48484,-0.137 -0.73234,-0.20216z" clip-rule="evenodd" fill-rule="evenodd"/>
   <path stroke="null" id="svg_8" fill="#28356A" d="m87.13489,38.39697c0.16144,-0.915 0.82677,-1.66236 1.72309,-2.03928c0.40932,-0.17286 0.86078,-0.26809 1.33966,-0.26809l19.42666,0c2.30109,0 4.44975,0.1331 6.41044,0.41222c0.56023,0.07886 1.10422,0.17019 1.6359,0.27255c0.528,0.10436 1.0433,0.22109 1.54337,0.34896c0.2475,0.06516 0.49373,0.13299 0.73361,0.20015c0.96461,0.28179 1.86067,0.61505 2.68821,0.99909c0.97222,-5.46436 -0.00888,-9.18494 -3.36089,-12.55388c-3.69761,-3.70955 -10.36926,-5.29684 -18.90692,-5.29684l-24.78607,0c-1.74378,0 -3.23143,1.11715 -3.50089,2.63795l-10.32357,57.65892c-0.20358,1.14065 0.79491,2.16971 2.10056,2.16971l15.30183,0l7.97501,-44.54145z" clip-rule="evenodd" fill-rule="evenodd"/>
  </g>
 </g>
</svg>